<?xml version="1.0" encoding="iso-8859-1"?>
<!-- Uploaded to: SVG Repo, www.svgrepo.com, Generator: SVG Repo Mixer Tools -->
<svg fill="#000000" height="800px" width="800px" version="1.1" id="Layer_1" xmlns="http://www.w3.org/2000/svg" xmlns:xlink="http://www.w3.org/1999/xlink" 
	 viewBox="0 0 491.522 491.522" xml:space="preserve">
<g>
	<g>
		<path d="M187.053,159.088c-1.591-2.631-3.015-4.726-4.143-6.262l-1.746,2.038l8.672,9.144
			C188.877,162.2,187.941,160.56,187.053,159.088z"/>
	</g>
</g>
<g>
	<g>
		<path d="M180.393,131.149c-0.165-0.311-0.329-0.617-0.488-0.934c-1.365-2.695-2.542-5.565-3.519-8.595
			c-0.124-0.384-0.233-0.77-0.35-1.158c-0.271-0.896-0.579-1.766-0.814-2.686v28.664l4.696-2.704
			c0.43-0.496,0.973-0.844,1.564-1.087c0.044-0.017,0.072-0.065,0.117-0.081c0.52-0.415,0.984-0.848,1.376-1.288
			c0.888-0.976,1.384-2.288,1.384-3.672v-0.056C182.889,135.594,181.597,133.417,180.393,131.149z"/>
	</g>
</g>
<g>
	<g>
		<path d="M192.766,169.888c-0.056,0.216-0.128,0.424-0.224,0.632c-0.584,1.32-1.808,2.224-3.208,2.408l8.656,9.999
			C196.414,178.352,194.669,174,192.766,169.888z"/>
	</g>
</g>
<g>
	<g>
		<path d="M228.725,93.272l-15.344-5.008c-2.032,1.28-4.472,2.32-7.28,3.12c-2.672,0.753-5.464,1.128-8.303,1.128h-9.6
			c-6.593,0.624-7.048,6.824-7.064,7.088c0.008,13.208,3.84,25.68,10.512,33.984c0.213,0.265,0.348,0.573,0.488,0.879l0.104-0.086
			c3.088,3.616,8.16,7.936,14.784,7.936c6.608,0,11.68-4.304,14.768-7.92l0.117,0.056c0.137-0.29,0.263-0.586,0.467-0.839
			c6.688-8.312,10.528-20.801,10.528-34.257C232.493,96.472,229.757,94.08,228.725,93.272z"/>
	</g>
</g>
<g>
	<g>
		<path d="M224.981,146.8c-0.669-0.742-1.218-1.566-1.704-2.423c-4.95,4.029-10.477,6.127-16.255,6.127
			c-5.788,0-11.324-2.1-16.274-6.136c-0.486,0.859-1.034,1.681-1.702,2.423c-0.074,0.08-0.183,0.144-0.258,0.224
			c1.379,1.817,3.183,4.366,5.274,7.84c1.304,2.152,2.696,4.648,4.128,7.464c3.403,6.694,6.323,14.089,8.817,21.983
			c2.503-7.92,5.437-15.334,8.854-22.047c1.416-2.792,2.8-5.256,4.08-7.4c2.077-3.441,3.895-6.005,5.288-7.84
			C225.156,146.938,225.052,146.878,224.981,146.8z"/>
	</g>
</g>
<g>
	<g>
		<polygon points="380.926,11.584 380.926,89.256 458.597,89.256 		"/>
	</g>
</g>
<g>
	<g>
		<path d="M107.493,163.741v18.887c2.433,0.71,4.789,1.865,6.856,3.1l3.256-3.256C113.542,176.502,110.223,170.211,107.493,163.741z
			"/>
	</g>
</g>
<g>
	<g>
		<path d="M253.853,163.688l-12.703-6.728c-0.028,0.088-0.111,0.154-0.142,0.24c-0.319,0.91-0.777,1.778-1.482,2.521l-7.016,7.407
			c0.439,0.488,0.816,1.056,1.104,1.673c1.192,2.528,0.784,5.424-1.048,7.536l-13.975,16.15c0.052-0.009,0.106-0.016,0.157-0.025
			c3.62-0.59,7.169-1.442,10.619-2.563c0.071-0.023,0.138-0.051,0.209-0.074c3.375-1.108,6.651-2.476,9.815-4.071
			c0.139-0.071,0.284-0.128,0.422-0.199c3.008-1.542,5.883-3.342,8.655-5.306c0.51-0.363,1.008-0.744,1.508-1.12
			c2.701-2.024,5.315-4.188,7.734-6.608c0.819-0.82,1.544-1.705,2.318-2.556C257.788,166.424,254.451,164.086,253.853,163.688z"/>
	</g>
</g>
<g>
	<g>
		<path d="M181.453,176.336c-1.839-2.12-2.24-5.008-1.048-7.544c0.288-0.616,0.656-1.176,1.096-1.672l-7.016-7.4
			c-0.706-0.743-1.166-1.612-1.484-2.524c-0.03-0.085-0.113-0.15-0.139-0.236l-12.856,6.808c0.025,0-3.611,2.398-6.019,6.199
			c0.773,0.85,1.497,1.735,2.315,2.553c2.415,2.416,5.024,4.576,7.72,6.598c0.511,0.384,1.018,0.773,1.537,1.141
			c2.766,1.96,5.634,3.755,8.636,5.293c0.147,0.076,0.3,0.136,0.447,0.211c3.169,1.595,6.447,2.966,9.827,4.073
			c0.058,0.019,0.113,0.042,0.17,0.06c3.459,1.124,7.018,1.979,10.645,2.569c0.049,0.008,0.098,0.013,0.147,0.021L181.453,176.336z"
			/>
	</g>
</g>
<g>
	<g>
		<path d="M238.055,120.199c-0.149,0.505-0.292,1.006-0.452,1.503c-0.935,2.908-2.051,5.659-3.339,8.246
			c-0.223,0.448-0.453,0.879-0.686,1.316c-1.192,2.236-2.469,4.381-3.918,6.311v0.032c0,1.384,0.496,2.696,1.392,3.68
			c0.424,0.472,0.928,0.935,1.48,1.375c0.045,0.018,0.074,0.062,0.118,0.081c0.56,0.218,1.068,0.544,1.458,0.999l0.344,0.399
			l3.575,1.896l0.769,0.407v-28.719C238.582,118.576,238.3,119.372,238.055,120.199z"/>
	</g>
</g>
<g>
	<g>
		<path d="M231.1,152.826c-1.144,1.569-2.567,3.647-4.143,6.254c-0.879,1.47-1.814,3.117-2.781,4.931l8.669-9.146L231.1,152.826z"/>
	</g>
</g>
<g>
	<g>
		<path d="M238.558,77.976c-1.736-4.872-5.624-5.544-5.664-5.552c-1.112-0.152-2.112-0.76-2.769-1.68
			c-0.656-0.919-0.904-2.064-0.68-3.168c0.368-1.879,0.144-3.192-0.664-3.904c-0.408-0.36-1.031-0.568-1.696-0.568h-27.376
			c-13.504,0-24.488,10.736-24.488,23.928v5.016c0.111-0.19,0.282-0.362,0.402-0.551c0.359-0.565,0.752-1.111,1.201-1.647
			c0.259-0.31,0.538-0.601,0.828-0.896c0.482-0.49,1.015-0.94,1.588-1.377c0.347-0.264,0.687-0.525,1.07-0.766
			c0.669-0.42,1.423-0.768,2.206-1.097c0.389-0.166,0.74-0.359,1.16-0.498c1.254-0.416,2.612-0.738,4.146-0.88l9.976-0.015
			c2.087,0,4.136-0.28,6.088-0.824c2.616-0.737,4.768-1.76,6.216-2.936c0.484-0.396,1.05-0.621,1.635-0.762
			c0.157-0.039,0.303-0.061,0.463-0.081c0.166-0.021,0.326-0.086,0.494-0.086c0.425,0,0.856,0.065,1.273,0.201l17.927,5.856
			c0.353,0.12,0.688,0.28,1.001,0.488c0.106,0.07,0.359,0.252,0.674,0.49c0.098,0.073,0.171,0.136,0.284,0.226
			c0.306,0.24,0.654,0.541,1.052,0.9c0.131,0.118,0.237,0.21,0.375,0.341c0.528,0.501,1.087,1.075,1.663,1.758
			c0.058,0.069,0.111,0.151,0.17,0.224c0.498,0.604,0.978,1.282,1.443,2.018c0.078,0.124,0.167,0.214,0.243,0.34v-13.08
			C238.797,78.912,238.717,78.424,238.558,77.976z"/>
	</g>
</g>
<g>
	<g>
		<path d="M221.477,170.52c-0.096-0.208-0.168-0.416-0.224-0.632c-1.912,4.112-3.656,8.472-5.232,13.04l8.664-9.999
			C223.285,172.744,222.061,171.84,221.477,170.52z"/>
	</g>
</g>
<g>
	<g>
		<path d="M104.981,228.64l-15.072-15.08l-68.568,68.568c1.44,3.08,5.752,9.328,13.344,16.416c5.504,5.144,9.761,7.856,12.032,8.92
			l46.777-46.782c0.012-0.012,0.022-0.022,0.033-0.035l21.734-21.736L104.981,228.64z"/>
	</g>
</g>
<g>
	<g>
		<path d="M372.733,105.64c-4.528,0-8.192-3.664-8.192-8.192V0H107.493v79.874c5.28-12.568,12.927-24.336,23.08-34.489
			c20.417-20.417,47.56-31.665,76.432-31.665c28.88,0,56.016,11.248,76.432,31.665c42.144,42.144,42.144,110.719,0,152.863
			c-2.348,2.349-4.785,4.559-7.292,6.649h149.412c4.528,0,8.192,3.663,8.192,8.192c0,4.529-3.664,8.192-8.192,8.192h-175.44
			c-0.251,0-0.462-0.12-0.707-0.142c-33.149,14.106-72.124,11.134-103.062-9.922l-3.256,3.256
			c3.392,5.672,6.281,13.496,0.552,19.225l-11.008,11.008l-25.144,25.146v221.67h362.689V105.64H372.733z M375.341,463.44H152.117
			c-4.527,0-8.192-3.663-8.192-8.192s3.664-8.192,8.192-8.192h223.224c4.528,0,8.191,3.664,8.191,8.192
			C383.532,459.776,379.87,463.44,375.341,463.44z M425.557,423.08h-273.44c-4.527,0-8.192-3.664-8.192-8.192
			c0-4.528,3.664-8.192,8.192-8.192h273.44c4.528,0,8.192,3.664,8.192,8.192C433.749,419.416,430.085,423.08,425.557,423.08z
			 M425.557,382.72h-273.44c-4.527,0-8.192-3.664-8.192-8.191c0-4.528,3.664-8.192,8.192-8.192h273.44
			c4.528,0,8.192,3.664,8.192,8.192C433.749,379.056,430.085,382.72,425.557,382.72z M425.557,342.36h-273.44
			c-4.527,0-8.192-3.664-8.192-8.192c0-4.527,3.664-8.191,8.192-8.191h273.44c4.528,0,8.192,3.664,8.192,8.191
			C433.749,338.696,430.085,342.36,425.557,342.36z M425.557,302h-273.44c-4.527,0-8.192-3.664-8.192-8.192
			c0-4.527,3.664-8.191,8.192-8.191h273.44c4.528,0,8.192,3.664,8.192,8.191C433.749,298.336,430.085,302,425.557,302z
			 M425.557,261.648h-273.44c-4.527,0-8.192-3.663-8.192-8.192c0-4.528,3.664-8.192,8.192-8.192h273.44
			c4.528,0,8.192,3.664,8.192,8.192S430.085,261.648,425.557,261.648z"/>
	</g>
</g>
<g>
	<g>
		<path d="M271.853,56.968c-17.32-17.32-40.352-26.864-64.848-26.864c-24.496,0-47.528,9.544-64.848,26.864
			c-32.728,32.728-35.888,84.872-7.352,121.28c2.552,3.264,2.272,7.92-0.656,10.848l-13.056,13.056
			c-2.92,2.92-7.528,3.199-10.784,0.703c-2.728-2.104-4.64-3.239-5.848-3.848l-2.968,2.968l25.352,25.352l2.968-2.968
			c-0.608-1.208-1.744-3.12-3.848-5.848c-2.504-3.256-2.208-7.872,0.704-10.784l13.056-13.056c2.936-2.936,7.584-3.208,10.848-0.656
			c36.4,28.536,88.544,25.384,121.28-7.352C307.613,150.904,307.613,92.728,271.853,56.968z M263.501,178.312
			c-1.834,1.835-3.748,3.567-5.731,5.2c-1.436,1.186-2.946,2.252-4.451,3.328c-0.548,0.39-1.065,0.828-1.622,1.204
			c-2.021,1.368-4.107,2.62-6.235,3.791c-0.056,0.031-0.108,0.068-0.164,0.099c-10.985,6.008-23.301,9.304-36.139,9.642
			c-0.053,0.001-0.104,0.008-0.157,0.01c-0.008,0.001-0.014,0.005-0.022,0.005l-1.448,0.065c-0.002,0-0.004-0.002-0.004-0.002
			c-0.178,0.002-0.349,0.026-0.525,0.026c-0.175,0-0.346-0.024-0.521-0.026l-0.006,0.002c-0.088,0-0.96-0.04-1.048-0.04
			c-0.019-0.002-0.045-0.015-0.065-0.016c-0.061,0-0.121-0.007-0.181-0.008h-0.002c-0.031,0-0.064,0-0.096,0
			c-0.079-0.002-0.155-0.014-0.234-0.015c-12.839-0.338-25.154-3.634-36.14-9.642c-0.058-0.032-0.111-0.07-0.168-0.102
			c-2.126-1.169-4.209-2.42-6.228-3.787c-0.574-0.387-1.107-0.837-1.671-1.24c-1.488-1.065-2.983-2.12-4.404-3.293
			c-1.982-1.634-3.896-3.365-5.73-5.2c-15.072-15.064-23.368-35.128-23.368-56.496c0-21.367,8.296-41.431,23.368-56.496
			c15.064-15.072,35.128-23.368,56.496-23.368c21.368-0.008,41.432,8.296,56.504,23.36c15.064,15.072,23.368,35.136,23.36,56.503
			C286.869,143.184,278.573,163.248,263.501,178.312z"/>
	</g>
</g>
<g>
	<g>
		<path d="M257.717,71.104c-13.52-13.52-31.536-20.959-50.712-20.959c-19.176,0-37.183,7.447-50.704,20.968
			c-13.52,13.52-20.968,31.528-20.968,50.703c0,15.146,4.711,29.523,13.324,41.574c3.282-4.156,7.042-6.572,7.26-6.71l11.112-5.89
			V87.032c0-17.712,14.664-32.12,32.68-32.12h27.376c2.656,0,5.184,0.928,7.104,2.608c1.416,1.248,3.464,3.768,3.608,7.999
			c3.088,1.496,6.608,4.472,8.48,9.721c0.472,1.344,0.712,2.736,0.712,4.152v71.39l10.856,5.745
			c0.088,0.048,0.176,0.096,0.256,0.152c0.219,0.138,3.975,2.552,7.256,6.705c8.612-12.052,13.32-26.427,13.32-41.57
			C278.677,102.64,271.238,84.624,257.717,71.104z"/>
	</g>
</g>
</svg>